<?xml version="1.0" standalone="no"?>
<!DOCTYPE svg PUBLIC "-//W3C//DTD SVG 20010904//EN"
 "http://www.w3.org/TR/2001/REC-SVG-20010904/DTD/svg10.dtd">
<svg version="1.0" xmlns="http://www.w3.org/2000/svg"
 width="256.000000pt" height="192.000000pt" viewBox="0 0 256.000000 192.000000"
 preserveAspectRatio="xMidYMid meet">
<metadata>
Created by Sal Anvarov
</metadata>
<g transform="translate(0.000000,192.000000) scale(0.100000,-0.100000)"
fill="#000000" stroke="none">
<path d="M990 1519 c-151 -88 -290 -167 -307 -176 l-33 -17 0 -365 0 -366 38
-21 c20 -11 159 -91 309 -177 150 -86 277 -157 283 -157 6 0 133 71 283 157
150 86 289 166 309 177 l38 21 0 365 0 365 -38 21 c-20 11 -159 91 -309 177
-150 86 -278 157 -285 156 -7 0 -137 -72 -288 -160z m660 -319 c0 -61 -2 -110
-4 -110 -3 0 -84 38 -180 84 l-174 84 -81 -50 c-45 -27 -81 -53 -81 -57 0 -4
117 -67 260 -140 l260 -133 0 -106 0 -107 -63 -39 c-34 -21 -120 -74 -190
-117 l-128 -78 -180 89 -179 90 0 110 c0 61 2 110 4 110 3 0 84 -38 180 -84
l174 -84 81 50 c45 27 81 53 81 57 0 4 -117 67 -260 140 l-260 133 0 108 0
108 33 20 c17 10 103 62 190 115 l158 96 180 -89 179 -90 0 -110z"/>
</g>
</svg>
