<svg xmlns="http://www.w3.org/2000/svg" width="160" height="28" fill="none"><path fill="#fff" d="M23.484 16.474c0 3.542-2.922 6.413-6.527 6.413h-5.582C5.057 22.887 0 17.664 0 11.527 0 5.388 5.057.165 11.375.165h6.62v2.931h-6.62c-4.598 0-8.391 3.84-8.391 8.43s3.793 8.428 8.391 8.428h5.582c1.957 0 3.543-1.558 3.543-3.481 0-1.923-1.586-3.482-3.543-3.482h-5.408c-.824 0-1.492-.656-1.492-1.466 0-.81.668-1.466 1.492-1.466h5.408c3.605 0 6.527 2.872 6.527 6.414z"/><path fill="#fff" d="M5.048 11.526c0-3.542 2.922-6.413 6.527-6.413h5.581c6.319 0 11.376 5.223 11.376 11.36 0 6.138-5.058 11.362-11.376 11.362h-6.62v-2.932h6.62c4.599 0 8.392-3.84 8.392-8.43 0-4.589-3.793-8.428-8.392-8.428h-5.581c-1.957 0-3.544 1.559-3.544 3.481 0 1.923 1.587 3.482 3.543 3.482h5.408c.824 0 1.492.656 1.492 1.466 0 .81-.668 1.466-1.492 1.466h-5.407c-3.605 0-6.527-2.872-6.527-6.414zM41.46 22.939c4.288 0 6.865-2.29 6.865-5.773 0-3.093-1.76-4.798-5.353-5.212l-1.71-.195c-1.71-.194-2.453-.682-2.453-1.632 0-.925.991-1.558 2.453-1.558 1.611 0 2.602.633 2.677 1.705h4.138c-.075-3.167-2.552-5.213-6.815-5.213-3.94 0-6.665 2.095-6.665 5.334 0 2.874 1.71 4.652 5.377 5.09l1.883.22c1.586.195 2.23.706 2.23 1.73 0 1.193-1.016 1.924-2.626 1.924-1.908 0-3.147-.877-3.197-2.241h-4.138c.05 3.653 2.8 5.82 7.335 5.82zm15.48 0c4.337 0 7.013-2.606 7.013-6.82V5.475h-4.089v10.328c0 2.216-1.09 3.36-2.924 3.36-1.833 0-2.924-1.144-2.924-3.36V5.475h-4.088V16.12c0 4.214 2.676 6.82 7.012 6.82zm8.997-.414h4.088v-5.943h3.643c3.692 0 6.145-2.095 6.145-5.553 0-3.459-2.453-5.554-6.145-5.554h-7.731v17.05zm4.088-9.718V9.25h3.445c1.387 0 2.205.706 2.205 1.778 0 1.071-.818 1.778-2.205 1.778h-3.445zm11.146 9.718h11.473V18.75H85.26v-3.24h7.384v-3.775H85.26V9.251h7.384V5.475H81.171v17.05zm13.215 0h4.088v-6.308h1.19l4.386 6.308h4.956l-4.535-6.43c2.478-.658 4.039-2.509 4.039-5.188 0-3.386-2.453-5.432-6.145-5.432h-7.98v17.05zm4.088-9.962V9.251h3.866c1.289 0 2.032.657 2.032 1.656 0 .998-.743 1.656-2.032 1.656h-3.866zm11.401 9.962h11.597V18.75h-7.508V5.475h-4.089v17.05zm12.971 0h4.089V5.475h-4.089v17.05zm6.076 0h4.089V12.003l5.501 10.522h4.857V5.475h-4.089v10.522l-5.501-10.522h-4.857v17.05zm26.097 0H160l-6.418-9.06L160 5.474h-4.956l-4.857 6.09h-.991v-6.09h-4.089v17.05h4.089V15.68h1.115l4.708 6.844z"/></svg>