<svg width="757.2261962890625px" height="181.98872070312498px" xmlns="http://www.w3.org/2000/svg" viewBox="-128.61309814453125 -15.994360351562491 757.2261962890625 181.98872070312498" style="background: rgba(0, 0, 0, 0);" preserveAspectRatio="xMidYMid"><defs><linearGradient id="editing-outline-gradient" x1="-0.5" x2="1.5" y1="0.5" y2="0.5"><stop offset="0" stop-color="#ffffff"></stop><stop offset="1" stop-color="#ffffff"></stop></linearGradient><filter id="editing-outline" x="-100%" y="-100%" width="300%" height="300%"><feMorphology in="SourceGraphic" operator="dilate" radius="1" result="outline"></feMorphology><feComposite operator="out" in="outline" in2="SourceAlpha"></feComposite></filter></defs><g filter="url(#editing-outline)"><g transform="translate(-31.84218144416809, 110.91718673706055)"><path d="M9.40-17.80L9.40-17.80Q9.70-14.40 11.95-11.30L11.95-11.30L11.95-11.30Q14.20-8.20 18.15-6.25L18.15-6.25L18.15-6.25Q22.10-4.30 27.20-4.30L27.20-4.30L27.20-4.30Q34.90-4.30 40.05-7.75L40.05-7.75L40.05-7.75Q45.20-11.20 45.20-18.70L45.20-18.70L45.20-18.70Q45.20-23.10 42.70-26.05L42.70-26.05L42.70-26.05Q40.20-29 36.50-30.75L36.50-30.75L36.50-30.75Q32.80-32.50 26.40-34.80L26.40-34.80L26.40-34.80Q19.50-37.20 15.35-39.25L15.35-39.25L15.35-39.25Q11.20-41.30 8.35-44.80L8.35-44.80L8.35-44.80Q5.50-48.30 5.50-53.80L5.50-53.80L5.50-53.80Q5.50-58.20 8-62.15L8-62.15L8-62.15Q10.50-66.10 15.55-68.55L15.55-68.55L15.55-68.55Q20.60-71 28-71L28-71L28-71Q32.90-71 36.10-70.30L36.10-70.30L36.10-70.30Q39.30-69.60 42.60-68L42.60-68L40.90-62.70L40.90-62.70Q35.20-65.60 28.20-65.60L28.20-65.60L28.20-65.60Q20.50-65.60 15.90-62.40L15.90-62.40L15.90-62.40Q11.30-59.20 11.30-53.50L11.30-53.50L11.30-53.50Q11.30-49.90 13.60-47.45L13.60-47.45L13.60-47.45Q15.90-45 19.25-43.50L19.25-43.50L19.25-43.50Q22.60-42 28.60-39.90L28.60-39.90L28.60-39.90Q35.90-37.40 40.40-35.25L40.40-35.25L40.40-35.25Q44.90-33.10 48.05-29.15L48.05-29.15L48.05-29.15Q51.20-25.20 51.20-19.20L51.20-19.20L51.20-19.20Q51.20-10 45.35-4.45L45.35-4.45L45.35-4.45Q39.50 1.10 27.30 1.10L27.30 1.10L27.30 1.10Q19.90 1.10 14.65-1.65L14.65-1.65L14.65-1.65Q9.40-4.40 6.65-8.75L6.65-8.75L6.65-8.75Q3.90-13.10 3.70-17.80L3.70-17.80L9.40-17.80ZM98.30 0L98.30 0Q87.50 1.10 82.70 1.10L82.70 1.10L82.70 1.10Q72.20 1.10 66-2.80L66-2.80L66-2.80Q59.80-6.70 59.80-16.90L59.80-16.90L59.80-25.20L59.80-25.20Q59.80-35.10 66.70-38.50L66.70-38.50L66.70-38.50Q70-40.20 75.10-40.20L75.10-40.20L75.10-40.20Q79.80-40.20 84.60-38.65L84.60-38.65L84.60-38.65Q89.40-37.10 92.70-34.60L92.70-34.60L92.70-34.60Q92.70-40.10 89.50-43.35L89.50-43.35L89.50-43.35Q86.30-46.60 77.20-46.60L77.20-46.60L77.50-50.90L77.50-50.90Q87.10-50.90 91.65-47.85L91.65-47.85L91.65-47.85Q96.20-44.80 97.25-40.60L97.25-40.60L97.25-40.60Q98.30-36.40 98.30-29.80L98.30-29.80L98.30 0ZM92.70-30.30L92.70-30.30Q88.60-32.20 83.95-33.60L83.95-33.60L83.95-33.60Q79.30-35 75.40-35L75.40-35L75.40-35Q65.30-35 65.30-24.90L65.30-24.90L65.30-16.20L65.30-16.20Q65.30-9.70 69.80-6.75L69.80-6.75L69.80-6.75Q74.30-3.80 82.60-3.80L82.60-3.80L82.60-3.80Q86.90-3.80 92.70-4.60L92.70-4.60L92.70-30.30ZM109.70 0L109.70-70L115.30-70L115.30 0L109.70 0ZM134.50-64.30L134.50-64.30Q133.20-64.30 132.15-65.35L132.15-65.35L132.15-65.35Q131.10-66.40 131.10-67.70L131.10-67.70L131.10-67.70Q131.10-69 132.10-70L132.10-70L132.10-70Q133.10-71 134.50-71L134.50-71L134.50-71Q135.90-71 136.85-70.05L136.85-70.05L136.85-70.05Q137.80-69.10 137.80-67.70L137.80-67.70L137.80-67.70Q137.80-66.30 136.80-65.30L136.80-65.30L136.80-65.30Q135.80-64.30 134.50-64.30L134.50-64.30ZM131.60 0L131.60-50.10L137.20-50.10L137.20 0L131.60 0ZM210.50 0L210.50-34.30L210.50-34.30Q210.50-40.30 207.35-43.10L207.35-43.10L207.35-43.10Q204.20-45.90 199.20-45.90L199.20-45.90L199.20-45.90Q195.30-45.90 190.50-44.20L190.50-44.20L186.80-42.40L186.80-42.40Q188.50-39 188.50-34.60L188.50-34.60L188.50 0L183 0L183-34.30L183-34.30Q183-40.40 179.85-43.15L179.85-43.15L179.85-43.15Q176.70-45.90 171.60-45.90L171.60-45.90L171.60-45.90Q168.50-45.90 165.20-44.95L165.20-44.95L165.20-44.95Q161.90-44 159.20-42.50L159.20-42.50L159.20 0L153.60 0L153.60-50.10L159.20-50.10L158.70-46.90L158.70-46.90Q165.30-50.80 172.20-50.80L172.20-50.80L172.20-50.80Q175.80-50.80 178.95-49.60L178.95-49.60L178.95-49.60Q182.10-48.40 184.30-46.10L184.30-46.10L184.30-46.10Q185.70-46.90 188.50-48.30L188.50-48.30L188.50-48.30Q194.40-51 199.90-51L199.90-51L199.90-51Q207-51 211.50-46.65L211.50-46.65L211.50-46.65Q216-42.30 216-34.60L216-34.60L216 0L210.50 0ZM292.80 0L284.80-24.50L262-24.50L254.20 0L248.30 0L270.70-70L276-70L298.80 0L292.80 0ZM273.30-61.30L263.60-30L283.30-30L273.30-61.30ZM337.60 0L337.60-34.30L337.60-34.30Q337.60-40.40 334.05-43.15L334.05-43.15L334.05-43.15Q330.50-45.90 324.90-45.90L324.90-45.90L324.90-45.90Q321.50-45.90 318-44.95L318-44.95L318-44.95Q314.50-44 311.80-42.50L311.80-42.50L311.80 0L306.20 0L306.20-50.10L311.80-50.10L311.40-46.70L311.40-46.70Q313.80-48.80 317.50-49.85L317.50-49.85L317.50-49.85Q321.20-50.90 325.20-50.90L325.20-50.90L325.20-50.90Q330.70-50.90 334.60-49.10L334.60-49.10L334.60-49.10Q338.60-47.30 340.85-43.70L340.85-43.70L340.85-43.70Q343.10-40.10 343.10-34.60L343.10-34.60L343.10 0L337.60 0ZM366.90 0L351.60-50.10L357.50-50.10L370.80-5.80L384.20-50.10L390.10-50.10L374.60 0L366.90 0ZM434.40 0L434.40 0Q423.60 1.10 418.80 1.10L418.80 1.10L418.80 1.10Q408.30 1.10 402.10-2.80L402.10-2.80L402.10-2.80Q395.90-6.70 395.90-16.90L395.90-16.90L395.90-25.20L395.90-25.20Q395.90-35.10 402.80-38.50L402.80-38.50L402.80-38.50Q406.10-40.20 411.20-40.20L411.20-40.20L411.20-40.20Q415.90-40.20 420.70-38.65L420.70-38.65L420.70-38.65Q425.50-37.10 428.80-34.60L428.80-34.60L428.80-34.60Q428.80-40.10 425.60-43.35L425.60-43.35L425.60-43.35Q422.40-46.60 413.30-46.60L413.30-46.60L413.60-50.90L413.60-50.90Q423.20-50.90 427.75-47.85L427.75-47.85L427.75-47.85Q432.30-44.80 433.35-40.60L433.35-40.60L433.35-40.60Q434.40-36.40 434.40-29.80L434.40-29.80L434.40 0ZM428.80-30.30L428.80-30.30Q424.70-32.20 420.05-33.60L420.05-33.60L420.05-33.60Q415.40-35 411.50-35L411.50-35L411.50-35Q401.40-35 401.40-24.90L401.40-24.90L401.40-16.20L401.40-16.20Q401.40-9.70 405.90-6.75L405.90-6.75L405.90-6.75Q410.40-3.80 418.70-3.80L418.70-3.80L418.70-3.80Q423.00-3.80 428.80-4.60L428.80-4.60L428.80-30.30ZM444.10 0L444.10-50.10L449.70-50.10L449.40-46.60L449.40-46.60Q454.10-51 461.70-51L461.70-51L461.70-51Q464.40-51 469.10-50.10L469.10-50.10L467.60-45L467.60-45Q464.40-46 460.90-46L460.90-46L460.90-46Q456.30-46 453.00-44.30L453.00-44.30L453.00-44.30Q449.70-42.60 449.70-39.20L449.70-39.20L449.70 0L444.10 0ZM516.40-18.40L516.40-18.40Q516.40-10 511.80-4.50L511.80-4.50L511.80-4.50Q507.20 1 497.90 1L497.90 1L497.90 1Q488.60 1 483.85-4.55L483.85-4.55L483.85-4.55Q479.10-10.10 479.10-18.40L479.10-18.40L479.10-31.60L479.10-31.60Q479.10-41.10 483.95-46.15L483.95-46.15L483.95-46.15Q488.80-51.20 497.90-51.20L497.90-51.20L497.90-51.20Q506.60-51.20 511.50-45.95L511.50-45.95L511.50-45.95Q516.40-40.70 516.40-31.60L516.40-31.60L516.40-18.40ZM510.80-31.60L510.80-31.60Q510.80-39.10 507.35-42.60L507.35-42.60L507.35-42.60Q503.90-46.10 497.90-46.10L497.90-46.10L497.90-46.10Q491.70-46.10 488.20-42.60L488.20-42.60L488.20-42.60Q484.70-39.10 484.70-31.60L484.70-31.60L484.70-17.40L484.70-17.40Q484.70-11.40 488.25-7.70L488.25-7.70L488.25-7.70Q491.80-4 497.90-4L497.90-4L497.90-4Q504.10-4 507.45-7.65L507.45-7.65L507.45-7.65Q510.80-11.30 510.80-17.40L510.80-17.40L510.80-31.60ZM536.80 0L521.50-50.10L527.40-50.10L540.70-5.80L554.10-50.10L560-50.10L544.50 0L536.80 0Z" fill="url(#editing-outline-gradient)"></path></g></g><style>text {
  font-size: 64px;
  font-family: Arial Black;
  dominant-baseline: central;
  text-anchor: middle;
}</style></svg>